<svg width="256" height="374" viewBox="0 0 256 374" fill="none" xmlns="http://www.w3.org/2000/svg">
<rect width="256" height="374" fill="#222222"/>
<path d="M49.64 195L47.96 183.096H50.96L52.016 192.96H52.448L53.984 183.096H58.832L60.368 192.96H60.8L61.856 183.096H64.856L63.176 195H58.16L56.624 185.136H56.192L54.656 195H49.64ZM67.5003 195V178.2H70.5243V184.56H70.9563C71.0843 184.304 71.2843 184.048 71.5563 183.792C71.8283 183.536 72.1883 183.328 72.6363 183.168C73.1003 182.992 73.6843 182.904 74.3883 182.904C75.3163 182.904 76.1243 183.12 76.8123 183.552C77.5163 183.968 78.0603 184.552 78.4443 185.304C78.8283 186.04 79.0203 186.904 79.0203 187.896V195H75.9963V188.136C75.9963 187.24 75.7723 186.568 75.3243 186.12C74.8923 185.672 74.2683 185.448 73.4523 185.448C72.5243 185.448 71.8043 185.76 71.2923 186.384C70.7803 186.992 70.5243 187.848 70.5243 188.952V195H67.5003ZM85.9854 195.336C85.1374 195.336 84.3774 195.192 83.7054 194.904C83.0334 194.6 82.4974 194.168 82.0974 193.608C81.7134 193.032 81.5214 192.336 81.5214 191.52C81.5214 190.704 81.7134 190.024 82.0974 189.48C82.4974 188.92 83.0414 188.504 83.7294 188.232C84.4334 187.944 85.2334 187.8 86.1294 187.8H89.3934V187.128C89.3934 186.568 89.2174 186.112 88.8654 185.76C88.5134 185.392 87.9534 185.208 87.1854 185.208C86.4334 185.208 85.8734 185.384 85.5054 185.736C85.1374 186.072 84.8974 186.512 84.7854 187.056L82.0014 186.12C82.1934 185.512 82.4974 184.96 82.9134 184.464C83.3454 183.952 83.9134 183.544 84.6174 183.24C85.3374 182.92 86.2094 182.76 87.2334 182.76C88.8014 182.76 90.0414 183.152 90.9534 183.936C91.8654 184.72 92.3214 185.856 92.3214 187.344V191.784C92.3214 192.264 92.5454 192.504 92.9934 192.504H93.9534V195H91.9374C91.3454 195 90.8574 194.856 90.4734 194.568C90.0894 194.28 89.8974 193.896 89.8974 193.416V193.392H89.4414C89.3774 193.584 89.2334 193.84 89.0094 194.16C88.7854 194.464 88.4334 194.736 87.9534 194.976C87.4734 195.216 86.8174 195.336 85.9854 195.336ZM86.5134 192.888C87.3614 192.888 88.0494 192.656 88.5774 192.192C89.1214 191.712 89.3934 191.08 89.3934 190.296V190.056H86.3454C85.7854 190.056 85.3454 190.176 85.0254 190.416C84.7054 190.656 84.5454 190.992 84.5454 191.424C84.5454 191.856 84.7134 192.208 85.0494 192.48C85.3854 192.752 85.8734 192.888 86.5134 192.888ZM99.8572 195C99.0732 195 98.4332 194.76 97.9372 194.28C97.4572 193.784 97.2172 193.128 97.2172 192.312V185.592H94.2412V183.096H97.2172V179.4H100.241V183.096H103.505V185.592H100.241V191.784C100.241 192.264 100.465 192.504 100.913 192.504H103.217V195H99.8572ZM113.992 195C113.368 195 112.896 194.84 112.576 194.52C112.272 194.2 112.12 193.752 112.12 193.176V184.632H108.376V183.336H112.12V178.968H113.56V183.336H117.64V184.632H113.56V192.984C113.56 193.464 113.8 193.704 114.28 193.704H117.016V195H113.992ZM125.76 195.336C124.576 195.336 123.536 195.088 122.64 194.592C121.76 194.08 121.072 193.376 120.576 192.48C120.096 191.568 119.856 190.512 119.856 189.312V189.024C119.856 187.824 120.096 186.776 120.576 185.88C121.072 184.968 121.76 184.264 122.64 183.768C123.536 183.256 124.576 183 125.76 183C126.944 183 127.976 183.256 128.856 183.768C129.752 184.264 130.44 184.968 130.92 185.88C131.416 186.776 131.664 187.824 131.664 189.024V189.312C131.664 190.512 131.416 191.568 130.92 192.48C130.44 193.376 129.752 194.08 128.856 194.592C127.976 195.088 126.944 195.336 125.76 195.336ZM125.76 194.04C127.136 194.04 128.224 193.608 129.024 192.744C129.824 191.864 130.224 190.704 130.224 189.264V189.072C130.224 187.632 129.824 186.48 129.024 185.616C128.224 184.736 127.136 184.296 125.76 184.296C124.4 184.296 123.312 184.736 122.496 185.616C121.696 186.48 121.296 187.632 121.296 189.072V189.264C121.296 190.704 121.696 191.864 122.496 192.744C123.312 193.608 124.4 194.04 125.76 194.04ZM138.937 195L137.257 183.096H140.257L141.313 192.96H141.745L143.281 183.096H148.129L149.665 192.96H150.097L151.153 183.096H154.153L152.473 195H147.457L145.921 185.136H145.489L143.953 195H138.937ZM160.493 195.336C159.645 195.336 158.885 195.192 158.213 194.904C157.541 194.6 157.005 194.168 156.605 193.608C156.221 193.032 156.029 192.336 156.029 191.52C156.029 190.704 156.221 190.024 156.605 189.48C157.005 188.92 157.549 188.504 158.237 188.232C158.941 187.944 159.741 187.8 160.637 187.8H163.901V187.128C163.901 186.568 163.725 186.112 163.373 185.76C163.021 185.392 162.461 185.208 161.693 185.208C160.941 185.208 160.381 185.384 160.013 185.736C159.645 186.072 159.405 186.512 159.293 187.056L156.509 186.12C156.701 185.512 157.005 184.96 157.421 184.464C157.853 183.952 158.421 183.544 159.125 183.24C159.845 182.92 160.717 182.76 161.741 182.76C163.309 182.76 164.549 183.152 165.461 183.936C166.373 184.72 166.829 185.856 166.829 187.344V191.784C166.829 192.264 167.053 192.504 167.501 192.504H168.461V195H166.445C165.853 195 165.365 194.856 164.981 194.568C164.597 194.28 164.405 193.896 164.405 193.416V193.392H163.949C163.885 193.584 163.741 193.84 163.517 194.16C163.293 194.464 162.941 194.736 162.461 194.976C161.981 195.216 161.325 195.336 160.493 195.336ZM161.021 192.888C161.869 192.888 162.557 192.656 163.085 192.192C163.629 191.712 163.901 191.08 163.901 190.296V190.056H160.853C160.293 190.056 159.853 190.176 159.533 190.416C159.213 190.656 159.053 190.992 159.053 191.424C159.053 191.856 159.221 192.208 159.557 192.48C159.893 192.752 160.381 192.888 161.021 192.888ZM174.365 195C173.581 195 172.941 194.76 172.445 194.28C171.965 193.784 171.725 193.128 171.725 192.312V185.592H168.749V183.096H171.725V179.4H174.749V183.096H178.013V185.592H174.749V191.784C174.749 192.264 174.973 192.504 175.421 192.504H177.725V195H174.365ZM185.92 195.336C184.768 195.336 183.72 195.096 182.776 194.616C181.848 194.136 181.112 193.44 180.568 192.528C180.024 191.616 179.752 190.512 179.752 189.216V188.88C179.752 187.584 180.024 186.48 180.568 185.568C181.112 184.656 181.848 183.96 182.776 183.48C183.72 183 184.768 182.76 185.92 182.76C187.056 182.76 188.032 182.96 188.848 183.36C189.664 183.76 190.32 184.312 190.816 185.016C191.328 185.704 191.664 186.488 191.824 187.368L188.896 187.992C188.832 187.512 188.688 187.08 188.464 186.696C188.24 186.312 187.92 186.008 187.504 185.784C187.104 185.56 186.6 185.448 185.992 185.448C185.384 185.448 184.832 185.584 184.336 185.856C183.856 186.112 183.472 186.504 183.184 187.032C182.912 187.544 182.776 188.176 182.776 188.928V189.168C182.776 189.92 182.912 190.56 183.184 191.088C183.472 191.6 183.856 191.992 184.336 192.264C184.832 192.52 185.384 192.648 185.992 192.648C186.904 192.648 187.592 192.416 188.056 191.952C188.536 191.472 188.84 190.848 188.968 190.08L191.896 190.776C191.688 191.624 191.328 192.4 190.816 193.104C190.32 193.792 189.664 194.336 188.848 194.736C188.032 195.136 187.056 195.336 185.92 195.336ZM194.391 195V178.2H197.415V184.56H197.847C197.975 184.304 198.175 184.048 198.447 183.792C198.719 183.536 199.079 183.328 199.527 183.168C199.991 182.992 200.575 182.904 201.279 182.904C202.207 182.904 203.015 183.12 203.703 183.552C204.407 183.968 204.951 184.552 205.335 185.304C205.719 186.04 205.911 186.904 205.911 187.896V195H202.887V188.136C202.887 187.24 202.663 186.568 202.215 186.12C201.783 185.672 201.159 185.448 200.343 185.448C199.415 185.448 198.695 185.76 198.183 186.384C197.671 186.992 197.415 187.848 197.415 188.952V195H194.391Z" fill="white"/>
</svg>
